<?xml version="1.0" encoding="utf-8"?>
<!-- Generator: Adobe Illustrator 28.2.0, SVG Export Plug-In . SVG Version: 6.00 Build 0)  -->
<svg version="1.2" baseProfile="tiny" id="Layer_1" xmlns="http://www.w3.org/2000/svg" xmlns:xlink="http://www.w3.org/1999/xlink"
	 x="0px" y="0px" viewBox="0 0 360 360" overflow="visible" xml:space="preserve">
<rect fill-rule="evenodd" fill="#008A30" width="360" height="360"/>
<g>
	<g>
		<g>
			<g>
				<g>
					<path fill-rule="evenodd" fill="#FFFFFF" d="M144.9,258.1c-9.9-3.9-16.2-7.4-22.7-13.2c-18.3-16.4-23.5-37.8-22.9-56.5
						c-1.9-0.1-3.2-0.2-4.1-0.2c-3.3-0.1-6.6-0.1-9.8-0.4l-0.3-0.1c2.7,22.3,13.8,44.7,34.8,60.2c6.5,4.8,14.7,8.5,24.1,11.8
						c1.4,0.5,2.6,0.7,2.9,0.8c0.7,0.1,1,0,1.1-0.4c0.2-0.5-0.2-0.9-0.5-1C147.3,259,146.2,258.6,144.9,258.1z M104.6,165.7
						c19.1-42.5,70.7-40.2,92.9-15.5c1,1.1,1.9,2.4,2.9,3.6c11.9-6.3,20.1-18,22-31.3c-57.7-48.8-123.8-10.3-135.4,41.2
						c-0.7,3.2-1.2,5.2-1.5,8.5c3.2-0.3,6.6-0.3,9.8-0.4c1.1-0.1,4.2-0.1,7-0.3C102.9,169.1,103.6,167.9,104.6,165.7"/>
					<path fill-rule="evenodd" fill="#FFFFFF" d="M104.2,188.5c-0.3,26,9.8,51,41.6,66.4c1.4,0.7,8.4,3.8,11.3,4.7
						c2.1,0.7,2.7,0.9,4.3,1.2c0.4,0.1,0.9,0,1-0.4c0.1-0.5-0.2-1-0.7-1.1c-1.6-0.5-2.1-0.7-5.3-2c-3.2-1.4-7.7-4-9.2-5.1
						c-25.7-17.5-31-38.1-29-55.6c-2.2-0.8-4.1-1.9-5.8-3.4l-5.2-4.3l0,0C106,188.4,105.4,188.6,104.2,188.5 M129.3,160.7
						c13.6-2.3,27.6-1.7,40,7.2c7.9-4.7,14.8-12.3,15.9-19.4c-19.2-11.5-48.9-15.6-70.1,10.3c-3,3.8-5,7.9-6.9,12.4
						C114.2,166.1,121.3,161.8,129.3,160.7"/>
					<path fill-rule="evenodd" fill="#FFFFFF" d="M83.9,181.4c1.9,2.2,14.2,1.6,22.6,2.2c6,0.4,7.4,2.5,11.9,5.7
						c5,5.5,23.6,6.2,29.7,5.5l3.9-1.1c7-4.1,15.1-6.2,23.2-6l1.8-0.2c38.1,0,78.8,10.7,64.2,35.8c-23.9,41.3-76.7,55.4-118,31.6
						c-23.5-13.6-39.2-37.3-42.5-64.2c-0.4-3.1-0.8-11.5,0.1-21c5.7-47.4,48.9-81.1,96.2-75.2c26.8,3.3,50.7,19,64.2,42.5
						c14.7-14.7,8.5-41-17.1-52.7C171.1,59.8,108.5,83,84.2,135.9C59.8,188.9,83,251.5,136,275.9c52.9,24.3,115.6,1.1,139.9-51.8
						c7.4-16.1,10.6-33.8,9.4-51.4H177l-1.8-0.2c-8.1,0.1-16.2-2-23.2-6l-3.9-1.1c-6-0.7-24.7-0.1-29.7,5.5
						c-4.4,3.1-5.8,5.2-11.6,5.6c-8.4,0.6-21.1-0.2-22.9,2.2c0,0-0.5,0.5-0.5,1.4C83.3,180.8,83.9,181.4,83.9,181.4z"/>
				</g>
			</g>
		</g>
	</g>
</g>
</svg>
